<svg width="32" height="32" viewBox="0 0 32 32" fill="none" xmlns="http://www.w3.org/2000/svg">
<path d="M19.6939 9.29046C19.5975 9.19839 19.483 9.12534 19.3569 9.0755C19.2308 9.02566 19.0957 9 18.9592 9C18.8227 9 18.6875 9.02566 18.5615 9.0755C18.4354 9.12534 18.3209 9.19839 18.2245 9.29046L11.2428 15.9423C11.1658 16.0155 11.1048 16.1024 11.0631 16.1981C11.0214 16.2937 11 16.3963 11 16.4999C11 16.6035 11.0214 16.7061 11.0631 16.8017C11.1048 16.8974 11.1658 16.9843 11.2428 17.0575L18.2245 23.7093C18.6313 24.0969 19.2871 24.0969 19.6939 23.7093C20.1006 23.3218 20.1006 22.6969 19.6939 22.3094L13.6004 16.5038L19.7022 10.6904C20.1006 10.3029 20.1006 9.67802 19.6939 9.29046Z" fill="white"/>
<circle cx="16" cy="16" r="15" stroke="white" stroke-width="2"/>
</svg>
