<svg width="38" height="37" viewBox="0 0 38 37" fill="none" xmlns="http://www.w3.org/2000/svg">
<path d="M16.375 26.1787C15.465 26.0778 14.57 25.8708 13.708 25.5619C13.7343 24.9424 13.75 24.2966 13.75 23.6246V23.4146V22.74C14.5638 23.1285 15.4484 23.3989 16.375 23.5327V17.0621C16.375 16.0178 16.7899 15.0163 17.5283 14.2779C18.2667 13.5395 19.2683 13.1246 20.3125 13.1246H26.7832C26.5738 11.6701 26.0186 10.287 25.1642 9.09137C24.3097 7.89578 23.1809 6.92259 21.8726 6.25349C20.5642 5.58439 19.1144 5.2389 17.6449 5.24601C16.1754 5.25312 14.729 5.61263 13.4272 6.29437C13.2195 5.43582 12.8776 4.61546 12.4139 3.86362C14.1156 3.01424 15.9973 2.58831 17.8989 2.62205C19.8005 2.65579 21.6658 3.1482 23.3363 4.05742C25.0068 4.96663 26.4331 6.26577 27.4939 7.84438C28.5546 9.423 29.2186 11.2344 29.4292 13.1246H33.4375C34.4818 13.1246 35.4834 13.5395 36.2218 14.2779C36.9602 15.0163 37.375 16.0178 37.375 17.0621V30.1871C37.375 31.2314 36.9602 32.2329 36.2218 32.9714C35.4834 33.7098 34.4818 34.1246 33.4375 34.1246H20.3125C19.2683 34.1246 18.2667 33.7098 17.5283 32.9714C16.7899 32.2329 16.375 31.2314 16.375 30.1871V26.1787ZM29.4292 15.7496C29.1309 18.4129 27.9363 20.8958 26.0412 22.7908C24.1462 24.6858 21.6634 25.8805 19 26.1787V30.1871C19 30.5352 19.1383 30.8691 19.3845 31.1152C19.6306 31.3613 19.9644 31.4996 20.3125 31.4996H33.4375C33.7856 31.4996 34.1195 31.3613 34.3656 31.1152C34.6118 30.8691 34.75 30.5352 34.75 30.1871V17.0621C34.75 16.714 34.6118 16.3802 34.3656 16.134C34.1195 15.8879 33.7856 15.7496 33.4375 15.7496H29.4292ZM26.7832 15.7496H20.3125C19.9644 15.7496 19.6306 15.8879 19.3845 16.134C19.1383 16.3802 19 16.714 19 17.0621V23.5327C20.9635 23.2489 22.7824 22.3376 24.1852 20.9348C25.588 19.532 26.4994 17.7131 26.7832 15.7496Z" fill="white"/>
<path d="M10.5869 17.2222C10.3112 16.209 9.865 15.1931 9.0985 14.4135C10.3375 13.2401 11.125 11.3711 11.125 9.18712C11.125 7.3575 10.7549 6.10012 10.0855 5.09475C9.78849 4.66234 9.44521 4.26361 9.06175 3.90562C8.91479 3.76374 8.76602 3.62373 8.6155 3.48562C8.45538 3.336 8.30838 3.1995 8.11675 3.00787C7.723 2.61412 7.67838 2.29912 7.67838 2.13375C7.67881 2.04183 7.69387 1.95056 7.723 1.86337C7.84302 1.60383 7.87499 1.31219 7.81405 1.03281C7.75312 0.753425 7.60261 0.501587 7.38541 0.315592C7.16822 0.129596 6.89623 0.0196192 6.6108 0.00238647C6.32537 -0.0148463 6.04212 0.0616077 5.80413 0.220122L5.79887 0.222747L5.791 0.227997L5.76738 0.243747L5.68862 0.296247C5.29487 0.577098 4.91552 0.877604 4.552 1.19662C3.89575 1.77675 3.04 2.63512 2.43362 3.65887C1.90429 4.50761 1.47946 5.4172 1.16838 6.36787C0.853375 7.31025 0.625 8.33137 0.625 9.18712C0.625 11.3711 1.4125 13.2375 2.6515 14.4161C1.885 15.1931 1.43875 16.209 1.16313 17.2249C0.625 19.1989 0.625 21.6401 0.625 23.5275V23.6246C0.625 29.0269 1.63563 32.2346 2.78012 34.143C3.355 35.0985 3.9535 35.7154 4.45488 36.1039C4.72203 36.3123 5.01278 36.4885 5.32113 36.6289C5.49944 36.694 5.68577 36.7346 5.875 36.7496C6.0955 36.7496 6.42887 36.6289 6.42887 36.6289C6.73722 36.4885 7.02797 36.3123 7.29512 36.1039C7.79387 35.7154 8.39762 35.0985 8.96987 34.143C10.1144 32.2373 11.125 29.0269 11.125 23.6246V23.5301C11.125 21.6401 11.125 19.2015 10.5869 17.2222ZM4.52837 16.251C4.825 15.9517 5.22137 15.7496 5.875 15.7496C6.53125 15.7496 6.925 15.9544 7.22162 16.2484C7.55237 16.5817 7.8385 17.1225 8.05375 17.9126C8.4895 19.5165 8.5 21.6217 8.5 23.6246C8.5 28.7224 7.54188 31.4209 6.71763 32.7938C6.40263 33.3187 6.106 33.6574 5.875 33.87C5.54495 33.5526 5.26128 33.1903 5.03237 32.7938C4.20812 31.4182 3.25 28.7224 3.25 23.6246C3.25 21.6217 3.2605 19.5165 3.69625 17.9126C3.9115 17.1251 4.19762 16.5817 4.52837 16.2484V16.251ZM5.875 13.1246C4.86438 13.1246 3.25 12.0011 3.25 9.18712C3.25 8.733 3.3865 8.01375 3.6595 7.2C3.90828 6.43175 4.25127 5.69729 4.68062 5.01337C4.909 4.6275 5.20563 4.25212 5.52588 3.90825C5.707 4.2285 5.94588 4.55137 6.26088 4.86637C6.4525 5.058 6.70187 5.289 6.9145 5.4885L7.24 5.793C7.51562 6.06075 7.72825 6.29437 7.89887 6.55425C8.21387 7.02412 8.5 7.7355 8.5 9.18712C8.5 12.0011 6.88562 13.1246 5.875 13.1246Z" fill="white"/>
</svg>
