<svg width="32" height="32" viewBox="0 0 32 32" fill="none" xmlns="http://www.w3.org/2000/svg">
<circle cx="16" cy="16" r="15" stroke="white" stroke-width="2"/>
<path d="M7 10.475C7 10.0838 7.15804 9.70863 7.43934 9.43202C7.72064 9.1554 8.10218 9 8.5 9H23.5C23.8978 9 24.2794 9.1554 24.5607 9.43202C24.842 9.70863 25 10.0838 25 10.475C25 10.8662 24.842 11.2414 24.5607 11.518C24.2794 11.7946 23.8978 11.95 23.5 11.95H8.5C8.10218 11.95 7.72064 11.7946 7.43934 11.518C7.15804 11.2414 7 10.8662 7 10.475Z" fill="white"/>
<path d="M7 16.375C7 15.9838 7.15804 15.6086 7.43934 15.332C7.72064 15.0554 8.10218 14.9 8.5 14.9H23.5C23.8978 14.9 24.2794 15.0554 24.5607 15.332C24.842 15.6086 25 15.9838 25 16.375C25 16.7662 24.842 17.1414 24.5607 17.418C24.2794 17.6946 23.8978 17.85 23.5 17.85H8.5C8.10218 17.85 7.72064 17.6946 7.43934 17.418C7.15804 17.1414 7 16.7662 7 16.375Z" fill="white"/>
<path d="M8.5 20.8C8.10218 20.8 7.72064 20.9554 7.43934 21.232C7.15804 21.5086 7 21.8838 7 22.275C7 22.6662 7.15804 23.0414 7.43934 23.318C7.72064 23.5946 8.10218 23.75 8.5 23.75H23.5C23.8978 23.75 24.2794 23.5946 24.5607 23.318C24.842 23.0414 25 22.6662 25 22.275C25 21.8838 24.842 21.5086 24.5607 21.232C24.2794 20.9554 23.8978 20.8 23.5 20.8H8.5Z" fill="white"/>
</svg>
