<svg width="31" height="32" viewBox="0 0 31 32" fill="none" xmlns="http://www.w3.org/2000/svg">
<path fill-rule="evenodd" clip-rule="evenodd" d="M15.5 0.200012C6.93977 0.200012 0 7.13978 0 15.7C0 24.2602 6.93977 31.2 15.5 31.2C24.0602 31.2 31 24.2602 31 15.7C31 7.13978 24.0602 0.200012 15.5 0.200012ZM22.2185 13.0791C22.3423 12.9377 22.4364 12.773 22.4956 12.5946C22.5547 12.4163 22.5775 12.2279 22.5627 12.0406C22.548 11.8533 22.4959 11.6708 22.4096 11.5039C22.3233 11.337 22.2044 11.1891 22.0601 11.0688C21.9157 10.9485 21.7488 10.8583 21.5691 10.8035C21.3894 10.7487 21.2005 10.7304 21.0136 10.7496C20.8267 10.7689 20.6455 10.8253 20.4808 10.9156C20.316 11.0059 20.171 11.1283 20.0542 11.2755L13.9951 18.545L10.8599 15.4083C10.5941 15.1517 10.2382 15.0096 9.86871 15.0128C9.49925 15.016 9.14583 15.1642 8.88457 15.4255C8.62332 15.6868 8.47512 16.0402 8.47191 16.4096C8.4687 16.7791 8.61073 17.135 8.86741 17.4008L13.0947 21.6281C13.2331 21.7664 13.3989 21.8744 13.5814 21.9452C13.7639 22.0159 13.9592 22.0479 14.1547 22.039C14.3502 22.0301 14.5418 21.9806 14.7171 21.8936C14.8925 21.8066 15.0478 21.684 15.1731 21.5336L22.2185 13.0791Z" fill="#FFA132"/>
</svg>
