<svg width="33" height="36" viewBox="0 0 33 36" fill="none" xmlns="http://www.w3.org/2000/svg">
<path d="M6.5 8.125C6.5 7.69402 6.67121 7.2807 6.97595 6.97595C7.2807 6.67121 7.69402 6.5 8.125 6.5H24.375C24.806 6.5 25.2193 6.67121 25.524 6.97595C25.8288 7.2807 26 7.69402 26 8.125C26 8.55598 25.8288 8.9693 25.524 9.27405C25.2193 9.57879 24.806 9.75 24.375 9.75H8.125C7.69402 9.75 7.2807 9.57879 6.97595 9.27405C6.67121 8.9693 6.5 8.55598 6.5 8.125Z" fill="white"/>
<path d="M6.5 14.625C6.5 14.194 6.67121 13.7807 6.97595 13.476C7.2807 13.1712 7.69402 13 8.125 13H24.375C24.806 13 25.2193 13.1712 25.524 13.476C25.8288 13.7807 26 14.194 26 14.625C26 15.056 25.8288 15.4693 25.524 15.774C25.2193 16.0788 24.806 16.25 24.375 16.25H8.125C7.69402 16.25 7.2807 16.0788 6.97595 15.774C6.67121 15.4693 6.5 15.056 6.5 14.625Z" fill="white"/>
<path d="M8.125 19.5C7.69402 19.5 7.2807 19.6712 6.97595 19.976C6.67121 20.2807 6.5 20.694 6.5 21.125C6.5 21.556 6.67121 21.9693 6.97595 22.274C7.2807 22.5788 7.69402 22.75 8.125 22.75H24.375C24.806 22.75 25.2193 22.5788 25.524 22.274C25.8288 21.9693 26 21.556 26 21.125C26 20.694 25.8288 20.2807 25.524 19.976C25.2193 19.6712 24.806 19.5 24.375 19.5H8.125Z" fill="white"/>
<path d="M6.5 27.625C6.5 27.194 6.67121 26.7807 6.97595 26.476C7.2807 26.1712 7.69402 26 8.125 26H14.625C15.056 26 15.4693 26.1712 15.774 26.476C16.0788 26.7807 16.25 27.194 16.25 27.625C16.25 28.056 16.0788 28.4693 15.774 28.774C15.4693 29.0788 15.056 29.25 14.625 29.25H8.125C7.69402 29.25 7.2807 29.0788 6.97595 28.774C6.67121 28.4693 6.5 28.056 6.5 27.625Z" fill="white"/>
<path fill-rule="evenodd" clip-rule="evenodd" d="M0 4.875C0 3.58207 0.513615 2.34209 1.42785 1.42785C2.34209 0.513615 3.58207 0 4.875 0H27.625C28.9179 0 30.1579 0.513615 31.0721 1.42785C31.9864 2.34209 32.5 3.58207 32.5 4.875V30.875C32.5 32.1679 31.9864 33.4079 31.0721 34.3221C30.1579 35.2364 28.9179 35.75 27.625 35.75H4.875C3.58207 35.75 2.34209 35.2364 1.42785 34.3221C0.513615 33.4079 0 32.1679 0 30.875V4.875ZM4.875 3.25H27.625C28.056 3.25 28.4693 3.4212 28.774 3.72595C29.0788 4.0307 29.25 4.44402 29.25 4.875V30.875C29.25 31.306 29.0788 31.7193 28.774 32.024C28.4693 32.3288 28.056 32.5 27.625 32.5H4.875C4.44402 32.5 4.0307 32.3288 3.72595 32.024C3.42121 31.7193 3.25 31.306 3.25 30.875V4.875C3.25 4.44402 3.42121 4.0307 3.72595 3.72595C4.0307 3.4212 4.44402 3.25 4.875 3.25Z" fill="white"/>
</svg>
